# xmcd
#
# Track frame offsets:
#	150
#	3335
#	30570
#	47293
#	68754
#	91054
#	110009
#	130742
#	167776
#	179955
#	222205
#
# Disc length: 3063 seconds
#
# Revision: 1
# Processed by: cddbd v1.5.2PL0 Copyright (c) Steve Scherf et al.
# Submitted via: cddb-tool 0.4.7
#
#blues,classical,country,data,folk,jazz,newage,reggae,rock,soundtrack,misc
#CATEGORY=blues
#
DISCID=8e0bf50b
DTITLE=Valborg - Barbarian
DYEAR=2010
DGENRE=Black Metal
TTITLE0=Intro
TTITLE1=Astral Kingdom
TTITLE2=Battlefield Of Souls
TTITLE3=Exterminator
TTITLE4=Amethystine Skies
TTITLE5=Dead Flowers On A Demon Grave
TTITLE6=Phlegethonian Stream
TTITLE7=Towering Clouds
TTITLE8=Iron Dreams
TTITLE9=Samantha Alive
TTITLE10=Last Silence
EXTD=
EXTT0=
EXTT1=
EXTT2=
EXTT3=
EXTT4=
EXTT5=
EXTT6=
EXTT7=
EXTT8=
EXTT9=
EXTT10=
PLAYORDER=
